<?xml version="1.0" encoding="UTF-8"?>
<svg id="Layer_1" data-name="Layer 1" xmlns="http://www.w3.org/2000/svg" viewBox="0 0 38.96 17.04">
  <defs>
    <style>
      .cls-1 {
        fill: #231f20;
        stroke-width: 0px;
      }
    </style>
  </defs>
  <g>
    <g>
      <path class="cls-1" d="M27.82,7.03c0-.16-.02-.26-.05-.3-.06-.08-.11-.13-.16-.14-.14-.04-.47-.06-.98-.06v-.11l2.32-.18v1.52c.03-.33.14-.64.34-.92.26-.4.6-.6,1-.6.15,0,.32.05.49.15.18.1.29.23.35.38.06.15.09.29.09.41,0,.32-.13.54-.4.66-.06.03-.15.05-.25.05-.16,0-.3-.06-.41-.17-.11-.11-.17-.28-.17-.5,0-.14.05-.29.16-.43.11-.14.24-.2.38-.17-.05-.17-.19-.25-.43-.25s-.46.17-.69.51c-.3.43-.45.99-.45,1.68v2.24c0,.16.01.27.04.31.02.02.05.05.11.07.17.06.52.08,1.04.08v.11h-3.5v-.11c.23,0,.44,0,.63-.02.19-.02.35-.05.49-.1.05-.04.07-.16.07-.35v-3.75Z"/>
      <path class="cls-1" d="M34.76,8.8v.55c0,.18,0,.36.01.53,0,.56-.06.94-.19,1.15-.18.29-.52.43-1.02.43s-.83-.12-1.06-.35c-.22-.23-.34-.56-.34-1v-3.41h-.96v-.11c.66-.16,1.15-.54,1.48-1.14.27-.48.4-1.02.4-1.63h.2v2.53h1.38v.35h-1.38v3.25c0,.43.02.71.05.84.08.3.26.46.53.46.32,0,.53-.18.64-.53.07-.24.11-.69.11-1.36v-.57h.14Z"/>
    </g>
    <g>
      <path class="cls-1" d="M6.57,6.61c.31-.23.48-.36.49-.37v1.8l-.1-.02c-.11-.48-.31-.87-.6-1.18-.31-.33-.66-.49-1.03-.49-.29,0-.52.06-.71.17-.25.15-.37.4-.37.76,0,.29.13.51.41.67.19.11.57.24,1.15.37.57.14.98.3,1.21.48.33.26.49.66.49,1.22,0,.52-.18.9-.53,1.15-.28.2-.63.3-1.06.3-.35,0-.6-.02-.76-.07-.22-.07-.47-.24-.73-.52-.32.38-.49.57-.5.59v-2.12h.08c.14.5.25.84.34,1.03.12.26.25.46.38.59.19.18.36.29.52.33.17.04.41.07.74.07.25,0,.45-.06.61-.19.19-.15.29-.37.29-.65,0-.36-.13-.63-.39-.8-.2-.14-.56-.26-1.07-.36s-.91-.27-1.19-.5c-.34-.28-.51-.65-.51-1.12,0-.42.14-.77.43-1.06s.63-.44,1.04-.44c.31,0,.58.05.82.16.3.14.48.21.53.22Z"/>
      <path class="cls-1" d="M12.98,7.69c.06-.37.16-.66.27-.87.2-.34.47-.53.83-.57.06,0,.12,0,.18-.01.07,0,.12-.01.15-.01.49,0,.89.15,1.18.46.25.26.37.56.37.91v3.19c0,.15.01.25.04.3.02.03.05.06.11.08.06.02.17.04.32.06.16.02.29.02.39.02v.11h-2.84v-.11c.19,0,.34,0,.44-.02.1-.01.22-.05.34-.11.05-.04.07-.15.07-.34v-3.05c0-.38-.03-.67-.1-.88-.1-.33-.29-.49-.57-.49s-.52.13-.7.4c-.21.3-.37.84-.48,1.62v2.41c0,.16.01.27.04.31.02.02.05.05.11.07.06.02.16.04.31.06.15.02.29.03.41.03v.11h-2.86v-.11c.3,0,.54-.03.71-.08l.08-.04s.07-.16.07-.35v-3.05c0-.39-.03-.68-.1-.88-.1-.33-.3-.49-.58-.49-.36,0-.64.23-.84.69-.14.32-.24.78-.32,1.38v2.36c0,.16.01.27.04.31.02.02.05.05.11.07.06.02.17.04.32.06.16.02.29.02.39.02v.11h-3.04v-.11c.17,0,.34,0,.51-.02.17-.02.33-.05.46-.1.05-.04.07-.16.07-.35v-3.65c0-.07,0-.14,0-.22,0-.07-.02-.13-.05-.17-.06-.08-.1-.13-.14-.14-.12-.04-.4-.06-.83-.06v-.11l2.16-.2v1.53c.06-.38.14-.69.25-.91.18-.37.46-.57.82-.61.08,0,.15-.01.21-.02s.11,0,.14,0c.51,0,.9.14,1.17.43.24.26.36.61.36,1.04Z"/>
    </g>
    <g>
      <path class="cls-1" d="M19.46,10.96c-.25-.15-.38-.39-.38-.73,0-.22.05-.48.16-.78l.31-.9c-.06-.02-.11-.05-.15-.09l-.13.37c-.3.83-.55,1.37-.74,1.64-.35.47-.83.71-1.46.71v.14h3.46v-.14c-.46,0-.82-.07-1.08-.22Z"/>
      <path class="cls-1" d="M22.04,8c-1.33,0-1.59.26-1.59,1.59,0-1.33-.26-1.59-1.59-1.59,1.33,0,1.59-.26,1.59-1.59,0,1.33.26,1.59,1.59,1.59Z"/>
      <path class="cls-1" d="M21.06,4.73l1.16,3.22c.07.1.11.22.13.35h0l.85,2.37.03.13c0,.15-.13.25-.38.3-.25.05-.71.07-1.38.07v.13h4.95v-.13c-.67,0-1.07-.03-1.21-.1s-.27-.28-.4-.65l-2.9-7.88h-.27l-.66,1.97"/>
    </g>
  </g>
  <rect class="cls-1" x=".57" y="14.34" width="37.78" height=".3"/>
  <rect class="cls-1" x=".57" y="2.71" width="19.42" height=".3"/>
  <rect class="cls-1" x="23.57" y="2.71" width="14.78" height=".3"/>
</svg>